<?xml version="1.0" standalone="no"?>
<!DOCTYPE svg PUBLIC "-//W3C//DTD SVG 20010904//EN"
 "http://www.w3.org/TR/2001/REC-SVG-20010904/DTD/svg10.dtd">
<svg version="1.0" xmlns="http://www.w3.org/2000/svg"
 width="700.000000pt" height="700.000000pt" viewBox="0 0 700.000000 700.000000"
 preserveAspectRatio="xMidYMid meet">
<metadata>
Created by potrace 1.11, written by Peter Selinger 2001-2013
</metadata>
<g transform="translate(0.000000,700.000000) scale(0.100000,-0.100000)"
fill="#000000" stroke="none">
<path d="M947 6053 c-4 -3 -7 -69 -7 -145 l0 -138 -29 -32 -29 -33 -222 -3
-221 -3 3 -42 3 -42 222 -5 c287 -6 267 9 271 -209 l3 -159 -29 -34 -30 -33
-221 -3 -221 -3 0 -279 0 -279 221 -3 221 -3 29 -33 29 -32 0 -490 0 -490 130
0 130 0 0 -60 0 -60 -130 0 -130 0 2 -1247 3 -1248 1248 -3 1247 -2 0 130 0
130 60 0 60 0 0 -130 0 -130 1248 2 1247 3 5 147 c5 145 5 148 33 175 l27 28
221 3 220 3 -3 42 -3 42 -222 5 c-287 6 -267 -9 -271 209 l-3 159 29 34 30 33
221 3 221 3 0 279 0 279 -221 3 -221 3 -29 33 -29 32 0 490 0 490 -130 0 -130
0 0 60 0 60 130 0 130 0 -2 1248 -3 1247 -1247 3 -1248 2 0 -130 0 -130 -60 0
-60 0 0 130 0 130 -1243 0 c-684 0 -1247 -3 -1250 -7z m4790 -1203 c58 -21 81
-104 43 -153 -12 -16 -483 -290 -1135 -662 -871 -497 -1121 -635 -1147 -635
-28 0 -164 84 -754 466 -395 256 -731 477 -745 491 -65 60 -22 173 66 173 39
0 14 15 785 -485 355 -230 649 -418 655 -418 5 0 485 271 1065 603 580 332
1069 609 1085 616 37 16 45 17 82 4z m-2585 -2082 c92 -27 179 -129 217 -254
44 -141 50 -359 14 -519 -45 -200 -153 -309 -321 -323 -193 -15 -326 102 -378
333 -24 106 -24 338 -1 444 42 190 136 301 279 331 48 10 135 5 190 -12z
m2388 -3 c129 -43 215 -187 241 -406 20 -179 -5 -390 -61 -500 -31 -60 -103
-134 -158 -160 -68 -33 -216 -34 -287 -1 -130 60 -202 193 -225 416 -31 301
47 547 199 629 88 48 188 56 291 22z m-3350 -475 l0 -480 120 0 120 0 0 -60 0
-60 -310 0 -310 0 0 60 0 59 118 3 117 3 3 408 c2 383 1 407 -15 407 -10 -1
-69 -11 -130 -24 l-113 -23 0 67 0 67 123 26 c67 14 157 25 200 26 l77 1 0
-480z m2380 0 l0 -480 120 0 120 0 0 -60 0 -60 -310 0 -310 0 0 60 0 59 118 3
117 3 3 408 c2 383 1 407 -15 407 -10 -1 -69 -11 -130 -24 l-113 -23 0 66 0
66 123 27 c67 14 157 26 200 27 l77 1 0 -480z m-740 70 l0 -90 -75 0 -75 0 0
90 0 90 75 0 75 0 0 -90z m0 -580 l0 -90 -75 0 -75 0 0 90 0 90 75 0 75 0 0
-90z"/>
<path d="M2950 2648 c-88 -48 -128 -154 -137 -363 -11 -259 38 -429 139 -481
38 -20 128 -20 165 -1 91 48 132 156 140 377 12 316 -57 476 -210 488 -41 3
-61 -1 -97 -20z"/>
<path d="M5333 2649 c-93 -46 -142 -190 -143 -421 0 -224 51 -377 142 -424 38
-20 128 -20 166 0 103 53 148 201 139 466 -5 169 -23 251 -72 322 -50 74 -149
98 -232 57z"/>
</g>
</svg>
